<svg xmlns="http://www.w3.org/2000/svg" viewBox="0 0 32 32" role="img" aria-label="WhatsApp">
  <circle cx="16" cy="16" r="16" fill="#25D366" />
  <path fill="#FFF" d="M23.6 8.4A10.6 10.6 0 0 0 16 5.3C10.1 5.3 5.3 10 5.3 15.9c0 1.9.5 3.8 1.5 5.4L5 27l5.9-1.6c1.6.9 3.3 1.3 5.1 1.3h.1c5.8 0 10.6-4.8 10.6-10.7 0-2.8-1.1-5.4-3.1-7.6Zm-7.5 16.5h-.1c-1.6 0-3.2-.4-4.5-1.3l-.3-.2-3.5.9.9-3.4-.2-.3a8.9 8.9 0 0 1-1.4-4.7c0-4.9 4-8.9 8.9-8.9 2.4 0 4.6.9 6.3 2.6a8.8 8.8 0 0 1 2.6 6.3c0 4.9-4 9-8.7 9Zm5-6.7c-.3-.1-1.8-.9-2-.9-.3-.1-.4-.1-.6.1-.2.3-.7.9-.9 1-.2.2-.3.2-.6.1a7.3 7.3 0 0 1-2.1-1.3 8.5 8.5 0 0 1-1.5-1.9c-.2-.3 0-.4.1-.6l.4-.5.2-.4c.1-.2 0-.3 0-.5l-.6-1.5c-.2-.4-.4-.4-.6-.4h-.5c-.2 0-.5.1-.8.4-.3.3-1 1-.9 2.3 0 1.3 1 2.6 1.1 2.8.1.2 2 3.1 4.9 4.3.7.3 1.2.4 1.6.5.7.2 1.3.2 1.8.1.6-.1 1.8-.7 2-1.4.3-.7.3-1.3.2-1.4-.1-.1-.3-.2-.6-.3Z"/>
</svg>
